<?xml version="1.0" standalone="no"?>
<!DOCTYPE svg PUBLIC "-//W3C//DTD SVG 1.1//EN" "http://www.w3.org/Graphics/SVG/1.1/DTD/svg11.dtd" >
<svg xmlns="http://www.w3.org/2000/svg">
<metadata></metadata>
<defs>
<font id="amorinoregular" horiz-adv-x="1024" >
<font-face units-per-em="2048" ascent="1536" descent="-512" />
<missing-glyph horiz-adv-x="491" />
<glyph horiz-adv-x="2048" />
<glyph horiz-adv-x="2048" />
<glyph unicode="&#xd;" />
<glyph unicode=" "  horiz-adv-x="491" />
<glyph unicode="&#x09;" horiz-adv-x="491" />
<glyph unicode="&#xa0;" horiz-adv-x="491" />
<glyph unicode="a" horiz-adv-x="1019" d="M20 477q0 98 37 184.5t101.5 151t151.5 102t186 37.5q88 0 166.5 -29.5t141 -83t105 -125t56.5 -155.5q2 -10 3 -21.5t1 -21.5v-76v-438h-47v266q-59 -119 -172 -192.5t-254 -73.5q-98 0 -185.5 37t-152 101.5t-101.5 151.5t-37 185zM68 477q0 -86 32.5 -163.5 t92.5 -139.5q61 -59 139 -92t164 -33t164 33t139 92q111 115 123 268q2 8 2 16.5v18.5v18.5t-2 18.5q-12 156 -123 266q-61 59 -139 92t-164 33t-164 -32.5t-139 -92.5q-59 -61 -92 -139t-33 -164z" />
<glyph unicode="b" horiz-adv-x="1015" d="M4 432v84v744v131l43 43v-174v-582q59 121 173 195.5t257 74.5q98 0 184.5 -37t151 -101.5t101 -150.5t36.5 -184t-36.5 -185t-101 -151.5t-151 -101.5t-184.5 -37q-143 0 -257 74.5t-173 195.5q-16 37 -27.5 78t-15.5 84zM49 475q0 -86 33 -165t92 -138t138 -92t165 -33 t164 33t137 92t92 138t33 165t-32.5 164t-92.5 137q-59 59 -137 92t-164 33t-165 -33t-138 -92t-92 -137t-33 -164z" />
<glyph unicode="c" horiz-adv-x="954" d="M0 475q0 98 37 184t101.5 150.5t151.5 102.5t185 38q113 0 208 -47t161 -125h-64h-2q-59 59 -138 92t-165 33t-164 -32.5t-137 -92.5q-61 -61 -94 -139t-33 -164q0 -176 127 -303q59 -59 137 -92t164 -33t165 33t138 92l2 2h64q-66 -80 -161 -127t-208 -47q-98 0 -185 37 t-151.5 101.5t-101.5 151.5t-37 185z" />
<glyph unicode="d" horiz-adv-x="1056" d="M0 475q0 98 37 184t101.5 150.5t150.5 101.5t184 37q143 0 258 -74.5t172 -195.5v713l43 43v-918v-84q-4 -43 -15 -84t-28 -78q-57 -121 -172 -195.5t-258 -74.5q-98 0 -184 37t-150.5 101.5t-101.5 151.5t-37 185zM47 475q0 -86 33 -165t92 -138t137 -92t164 -33t165 33 t138 92t92 138t33 165t-32.5 164t-92.5 137q-59 59 -138 92t-165 33t-164 -32.5t-137 -92.5q-59 -59 -92 -137t-33 -164z" />
<glyph unicode="e" horiz-adv-x="1007" d="M4 477v12q0 12 1 23.5t3 24.5q10 88 51 163.5t104.5 132t144.5 88t171 31.5q92 0 173 -31.5t143.5 -88t103.5 -132t51 -163.5q2 -12 3 -23.5t1 -24.5h-47h-856v-12q0 -86 33 -163.5t92 -139.5q61 -59 139 -92t164 -33t164 33t139 92q25 25 49 59h56q-61 -104 -169 -167.5 t-239 -63.5q-98 0 -185 37t-151.5 101.5t-101.5 151.5t-37 185zM55 537h848q-10 70 -41 131t-80 112q-61 59 -139 92t-164 33t-164 -33t-139 -92q-49 -51 -79.5 -112.5t-41.5 -130.5z" />
<glyph unicode="f" horiz-adv-x="368" d="M-1 484q1 186 1 292v185q0 98 35 184t94 150.5t139 101.5t172 37q66 0 125 -19l-37 -39q-47 10 -88 10q-80 0 -151.5 -32.5t-128.5 -91.5q-51 -53 -80 -122t-35 -147v-49h320l-50 -47h-270v-897h-45q-1 198 -1 347v137z" />
<glyph unicode="g" d="M6 477q0 98 37 184.5t101.5 151t151.5 102t185 37.5t184.5 -37.5t151 -102t102 -151t37.5 -184.5v-33v-442v-35q-10 -100 -49 -182q-53 -117 -157.5 -187.5t-233.5 -70.5q-92 0 -172 37t-139.5 101.5t-94 151.5t-34.5 185h43q0 -176 117 -303q57 -59 128.5 -92t151.5 -33 t151.5 33t129.5 92q92 102 110 238v331q-57 -119 -170.5 -192.5t-255.5 -73.5q-98 0 -185 37t-151.5 101.5t-101.5 151.5t-37 185zM53 477q0 -86 33 -163.5t92 -139.5q61 -59 139 -92t164 -33t164 33t139 92q55 55 87 125t36 147q2 10 2 31v16.5t-2 16.5q-10 158 -123 270 q-61 61 -139 93t-164 32t-163.5 -31.5t-139.5 -93.5q-59 -59 -92 -138t-33 -165z" />
<glyph unicode="h" horiz-adv-x="843" d="M-2 0v528v99v762l45 45v-674q47 86 134 138t192 52q70 0 132 -23.5t111.5 -65.5t82 -99t42.5 -125q0 -6 2 -10v-99v-528h-45v395v174v17q-2 63 -25.5 120.5t-68.5 102.5q-98 94 -231 94t-232 -94q-84 -88 -94 -209v-600h-45z" />
<glyph unicode="i" horiz-adv-x="143" d="M2 0h45v874l-45 -45v-829zM2 870v80h45v-35z" />
<glyph unicode="j" horiz-adv-x="409" d="M-360 -381q84 -45 176 -45q80 0 151.5 33t126.5 92q51 53 81 121.5t34 146.5v864l45 46v-840v-70q-6 -92 -43 -172t-95.5 -140.5t-136 -94t-163.5 -33.5q-94 0 -176 41v51zM209 872v80h45v-34z" />
<glyph unicode="k" horiz-adv-x="688" d="M-2 0v1391l43 43v-910l94 92l33 35l301 301v-67l-272 -273l432 -612h-58l-409 578l-121 -121v-457h-43z" />
<glyph unicode="l" horiz-adv-x="110" d="M0 -2v1391l45 43v-1434h-45z" />
<glyph unicode="m" horiz-adv-x="1400" d="M2 0v528v101q0 2 1 4t1 4q10 68 43 125t82 99t111.5 65.5t132.5 23.5q90 0 166.5 -40t128.5 -105q51 66 127.5 105.5t167.5 39.5q70 0 132 -23.5t111 -65.5t82 -99t43 -125q0 -2 1 -4t1 -4v-101v-526h-45v395v172v19q-4 131 -94 221q-94 94 -231 94q-66 0 -124.5 -23.5 t-105.5 -70.5q-20 -20 -37 -47q-4 -4 -4 -6v-756h-47v756l-6 6q-16 27 -37 47q-47 47 -105.5 70.5t-123.5 23.5q-137 0 -232 -94q-94 -94 -94 -231v-181v-397h-45z" />
<glyph unicode="n" horiz-adv-x="811" d="M2 0v528v99q2 4 2 10q10 68 43 125t82 99t111.5 65.5t132.5 23.5t132 -23.5t111.5 -65.5t82 -99t42.5 -125q0 -6 2 -8v-101v-528h-45v395v174v17q-2 63 -25.5 120.5t-68.5 102.5q-94 94 -231 94t-232 -94q-94 -94 -94 -231v-183v-395h-45z" />
<glyph unicode="o" horiz-adv-x="991" d="M2 475q0 98 37 184t101.5 150.5t151.5 102.5t185 38t184.5 -38t151 -102.5t102 -150.5t37.5 -184t-37.5 -185t-102 -151.5t-151 -101.5t-184.5 -37t-185 37t-151.5 101.5t-101.5 151.5t-37 185zM49 475q0 -86 33 -164t92 -139q61 -59 139 -92t164 -33t164 33t139 92 q59 61 92 139t33 164t-32.5 164t-92.5 139q-61 59 -139 92t-164 33t-163.5 -32.5t-139.5 -92.5q-59 -61 -92 -139t-33 -164z" />
<glyph unicode="p" horiz-adv-x="987" d="M0 434v84q10 88 43 162q29 59 73 108.5t99 85t119.5 55t136.5 19.5q98 0 183 -37t149.5 -101.5t101.5 -149.5t37 -183t-37 -183t-101.5 -149.5t-149.5 -101.5t-183 -37q-72 0 -136.5 19.5t-119.5 54.5t-99 85t-73 109v-708l-43 -43v911zM45 477q0 -86 33 -163.5 t92 -137.5q59 -59 137 -92t164 -33t163 33t136 92t92 137t33 164t-33 163t-92 138q-59 59 -136 91t-163 32t-164 -32t-137 -91q-59 -61 -92 -138t-33 -163z" />
<glyph unicode="q" horiz-adv-x="1007" d="M0 477q0 98 37 183t101.5 149.5t149.5 101.5t183 37q70 0 135.5 -19.5t120.5 -55t99 -85t73 -108.5q33 -74 43 -162v-84v-737v-131l-43 -43v174v577q-29 -59 -73 -109t-99 -85t-120.5 -54.5t-135.5 -19.5q-98 0 -183 37t-149.5 101.5t-101.5 149.5t-37 183zM47 477 q0 -86 33 -163.5t92 -137.5q59 -59 136 -92t163 -33t164 33t137 92t92 137t33 164t-33 163t-92 138q-59 59 -137 91t-164 32t-163 -31.5t-136 -91.5q-59 -61 -92 -138t-33 -163z" />
<glyph unicode="r" horiz-adv-x="675" d="M2 0v528v99q2 4 2 10q10 68 43 125t82 99t111.5 65.5t132.5 23.5q119 0 215 -67l-35 -33q-82 53 -180 53q-133 0 -232 -94q-94 -94 -94 -231v-183v-395h-45z" />
<glyph unicode="s" horiz-adv-x="995" d="M-2 463v12v12q0 12 1 23.5t3 24.5q10 80 45 150.5t88 123.5v2q4 2 12 10v2q4 2 11 8q2 2 4 3q2 2 3 4t5 4q2 0 2 1t2 1l6 6q2 2 3 2t3 2l7 6q2 0 6 4q2 0 6 4q2 2 3 2t3 2t3 2t3 3l8 4l4 4q8 4 11 6q2 0 4 2q4 2 6 2t4 2t4 2l12 6l2 2q4 2 6.5 2t6.5 2l2 2q8 4 12 5h2 q4 4 8 4l8 4h2q2 0 4.5 1t4.5 1h2q2 2 3 2t3 2h2q4 0 5 1t3 1h2q2 2 8 2h2q2 2 9 2v2q8 0 10 2q8 0 12 2q8 0 10 2h2h11h2q2 2 10 2h2q6 0 8 2h2h10h3h10h2h12h14h5h10h4q4 0 7 -1t7 -1h4q6 0 8 -2h7q4 0 6 -1t6 -1h6q2 -2 8 -2q4 0 6 -2h7q4 -2 6 -2t6 -2h4q4 -2 8 -2 q2 -2 4 -2q8 -2 14.5 -4t12.5 -4q2 0 2 -1t2 -1q12 -4 27 -11h2q139 -63 215 -192h-56q-25 35 -49 59q-61 59 -139 92t-164 33t-164 -32.5t-139 -92.5q-49 -51 -80 -112.5t-41 -130.5q-2 -12 -3 -23.5t-1 -24.5v-12v-12h856h47q0 -10 -1 -22.5t-3 -24.5q-10 -80 -45 -150.5 t-88 -124.5l-12 -12l-11 -10q-2 0 -2 -1t-2 -1l-8 -8q-2 0 -2 -1.5t-2 -1.5l-6 -6q-2 0 -6 -4q-2 -2 -3 -2t-3 -2q-4 -4 -6 -4l-7 -6q-2 0 -6 -4q-2 -2 -3 -2t-3 -2l-8 -4q-2 -2 -4 -2q-4 -2 -5 -3.5t-5 -3.5q-2 -2 -5 -2q-8 -4 -10 -6q-2 0 -2 -1t-2 -1l-12 -6h-2l-12 -6 h-3l-12 -6h-2l-8 -4q-4 0 -5 -1t-3 -1l-2 -2q-2 0 -4 -1t-5 -1h-2q-2 -2 -6 -3q-2 0 -2 -2q-6 0 -8 -2h-2q-2 0 -3 -1t-5 -1h-2q-2 -2 -8 -2q-4 -2 -11 -2q-4 -2 -12 -2v-2h-10h-2q-4 -2 -10 -2h-3q-2 0 -4 -1t-6 -1h-2h-8h-4q-2 -2 -8 -2h-2h-11h-2h-12h-14h-4h-11h-4 q-4 2 -14 2h-4q-4 0 -5 1t-3 1h-6q-4 0 -6.5 1t-6.5 1t-6 2h-8q-2 0 -3 1t-3 1q-4 0 -6 2q-4 0 -6.5 1t-6.5 1t-4 2q-6 0 -8 2h-4q-8 4 -14.5 5.5t-14.5 5.5h-2q-6 4 -13 6t-13 6h-2q-139 59 -215 190h55q25 -35 49 -59q61 -59 139 -92t164 -33t164 33t139 92 q49 51 80 112.5t41 131.5h-848h-47q-2 12 -3 24.5t-1 22.5z" />
<glyph unicode="t" horiz-adv-x="684" d="M2 944h283v264l45 45v-309h319l-47 -47h-272v-897h-45v897h-236z" />
<glyph unicode="u" horiz-adv-x="802" d="M2 324v100v526l45 -43v-352v-174v-16q4 -131 94 -222q96 -96 232 -96q66 0 125 24.5t106 71.5t70.5 105.5t23.5 124.5v182v352l45 43v-528v-98q-2 -4 -2 -11q-10 -68 -42.5 -125t-82 -99t-112 -65.5t-131.5 -23.5q-70 0 -132.5 23.5t-111.5 65.5t-82 99.5t-43 124.5 q0 6 -2 11z" />
<glyph unicode="v" horiz-adv-x="1028" d="M2 950l102 -102l394 -811l393 811l102 102l-461 -950h-16h-37h-16z" />
<glyph unicode="w" horiz-adv-x="1417" d="M2 950l102 -102l396 -811l166 344l-136 281l103 -103l59 -123l64 131l102 103l-139 -289l166 -344l395 811l102 102l-462 -950h-17h-37h-14l-160 328l-160 -328h-14h-37h-16z" />
<glyph unicode="x" horiz-adv-x="954" d="M0 0l49 49q147 18 254 123q113 117 123 277v26v27q-4 78 -36 149.5t-87 126.5q-104 104 -254 123l-49 49q78 0 149.5 -24.5t130 -67.5t102.5 -102.5t69 -128.5q25 70 68.5 129t102 102t130 67.5t149.5 24.5l-49 -49q-150 -18 -254 -123q-55 -55 -87 -126.5t-36 -149.5 v-27v-26q10 -160 123 -277q106 -104 254 -123l49 -49q-78 0 -149.5 23.5t-130 66.5t-102.5 102.5t-68 131.5q-25 -72 -69 -131.5t-102.5 -102.5t-130 -66.5t-149.5 -23.5z" />
<glyph unicode="y" horiz-adv-x="823" d="M0 324v100v526l45 -43v-352v-172v-18q2 -61 25.5 -119t68.5 -103q94 -94 232 -94q66 0 124 23.5t105 70.5q96 96 96 232v180v352l43 43v-78l2 -837q0 -8 -1 -35t-1 -35q-6 -92 -43 -172t-95 -140.5t-135 -94t-165 -33.5q-94 0 -176 41v51q84 -45 176 -45q80 0 151.5 33 t129.5 92q51 53 79.5 121.5t34.5 146.5v228q-47 -86 -134 -138.5t-191 -52.5q-70 0 -132.5 23.5t-111.5 65.5t-82 99.5t-43 124.5q0 6 -2 9z" />
<glyph unicode="z" horiz-adv-x="1036" d="M6 0v33l14 14l879 856h-846l-47 47h942h33v-32l-14 -15l-879 -856h846l47 -47h-940h-35z" />
<glyph unicode="&#x2000;" horiz-adv-x="717" />
<glyph unicode="&#x2001;" horiz-adv-x="1434" />
<glyph unicode="&#x2002;" horiz-adv-x="717" />
<glyph unicode="&#x2003;" horiz-adv-x="1434" />
<glyph unicode="&#x2004;" horiz-adv-x="478" />
<glyph unicode="&#x2005;" horiz-adv-x="358" />
<glyph unicode="&#x2006;" horiz-adv-x="239" />
<glyph unicode="&#x2007;" horiz-adv-x="239" />
<glyph unicode="&#x2008;" horiz-adv-x="179" />
<glyph unicode="&#x2009;" horiz-adv-x="286" />
<glyph unicode="&#x200a;" horiz-adv-x="79" />
<glyph unicode="&#x202f;" horiz-adv-x="286" />
<glyph unicode="&#x205f;" horiz-adv-x="358" />
<glyph unicode="&#x25fc;" horiz-adv-x="952" d="M0 0v952h952v-952h-952z" />
</font>
</defs>
</svg>
